# Blender 4.5.3 LTS
# www.blender.org
mtllib red_heart.mtl
o Love
v 1.445440 3.420180 1.187919
v -0.060160 2.479090 1.293190
v -0.046880 1.349720 1.895350
v 2.520360 -0.494270 -1.241840
v 1.527550 -1.802600 -0.871370
v 1.205540 -1.191620 -1.539500
v -1.568260 -0.880220 1.588580
v -0.287750 -1.964090 1.305210
v -0.031790 -0.855030 1.842300
v 2.620880 -1.011220 0.610440
v 1.577920 -2.095420 -0.190890
v 3.122540 -0.554500 -0.154280
v -0.279090 -2.836800 -0.436440
v -1.803990 -1.409770 -1.126260
v -0.216120 -2.622350 -0.845170
v 1.928200 1.868810 -1.849310
v -0.055080 1.461170 -1.845800
v 1.568650 2.965840 -1.532111
v 2.526480 2.361790 -1.644750
v 2.484480 1.221420 -1.769680
v 3.355560 2.230800 1.272620
v 3.460920 0.858640 1.164130
v 3.943500 1.878080 0.607040
v -2.788870 3.667390 0.204399
v -3.703230 2.757270 0.520920
v -2.460600 3.431410 1.103460
v -2.562300 0.981230 1.751930
v -0.990370 0.123170 1.972160
v -2.149730 2.261730 1.803450
v -0.700830 -1.411710 -1.562480
v -1.645840 -0.239680 -1.763390
v -0.585860 0.732530 -1.983430
v -2.121610 2.151150 -1.817130
v 1.481380 0.176670 -1.903920
v -0.026870 -0.569500 -1.925780
v -1.289900 0.260010 -1.929070
v -3.355580 3.226000 -0.365420
v -4.012970 2.188690 -0.333220
v 3.257830 1.437710 -1.422940
v 3.772910 2.131050 -0.968150
v 1.293520 3.708730 0.699470
v 1.416480 3.859941 -0.140071
v 0.002400 2.994250 0.643459
v 0.814600 0.678330 -1.978180
v 0.616490 -2.674860 -0.381880
v 0.354990 -2.668810 0.732290
v 1.505170 -1.906870 0.771540
v 2.707900 -0.864130 -0.640870
v 3.654650 0.757380 -0.864560
v 4.020050 1.225100 -0.017930
v -1.891200 -1.442550 0.966910
v -1.765500 -1.986380 0.016420
v -0.454720 -2.654480 0.678670
v 0.520410 -2.400540 -0.920510
v 0.373980 -1.755390 -1.427790
v 1.899110 -0.227650 -1.680690
v 2.831630 0.554910 -1.544840
v -2.822950 0.746000 -1.651620
v -0.000290 3.012170 -0.633051
v -1.211250 3.776140 -0.314551
v -2.858610 -0.818270 0.387970
v -2.814610 -0.858340 -0.443790
v -3.952270 1.043140 -0.390340
v -3.690950 0.441780 0.400340
v 2.767110 3.733631 -0.211761
v 3.449110 2.982850 0.708589
v 3.843200 2.632170 -0.401090
v 0.818140 -1.590170 1.436950
v 1.709560 -0.366650 1.724880
v 1.108610 0.374940 1.975010
v 2.768320 0.995750 1.683770
v 2.333420 2.102760 1.776810
v -1.368360 2.969880 1.478279
v -1.243170 3.581990 0.914280
v -3.893760 1.533820 0.755430
v -3.340210 2.143350 1.327850
v -1.449620 3.339810 -1.318771
v -3.256840 2.512850 -1.259860
v 2.373220 3.718500 0.628749
v 1.385820 3.642890 -0.906310
v 0.038300 2.439540 -1.334900
v 2.557700 3.376350 -1.082181
v -3.225670 0.521810 1.261860
v -2.275020 3.768270 -0.615031
v -2.741930 3.204050 -1.122540
v -1.877200 3.878740 0.321269
v 2.443820 -0.461050 1.296870
v 3.761120 0.689860 0.510340
v -3.286240 0.167980 -0.914060
v -3.599610 1.406660 -1.184010
v 2.412380 3.140190 1.286650
v 1.664500 2.614520 1.697030
vn -0.2251 0.4564 0.8609
vn 0.4482 -0.5415 -0.7112
vn -0.1425 -0.4046 0.9033
vn 0.7052 -0.7079 0.0399
vn -0.4844 -0.7418 -0.4638
vn -0.0553 0.2606 -0.9639
vn 0.2500 0.0963 -0.9634
vn 0.7509 0.0054 0.6604
vn -0.5745 0.7155 0.3976
vn -0.1365 0.0041 0.9906
vn -0.3352 -0.4152 -0.8457
vn 0.0390 0.1579 -0.9867
vn 0.1369 -0.0042 -0.9906
vn -0.0368 -0.0600 -0.9975
vn -0.0899 0.0194 -0.9958
vn -0.8443 0.5336 -0.0490
vn 0.4952 0.1884 -0.8481
vn -0.4853 0.8702 0.0857
vn 0.0076 0.1006 -0.9949
vn -0.0465 0.2180 -0.9748
vn 0.1858 -0.8816 -0.4339
vn 0.5362 -0.8198 0.2011
vn 0.6998 -0.6979 -0.1523
vn 0.9330 -0.1063 -0.3440
vn -0.5605 -0.7486 0.3542
vn 0.1750 -0.9835 0.0464
vn 0.0998 -0.6009 -0.7931
vn -0.1531 -0.2856 -0.9460
vn 0.7879 -0.5080 -0.3481
vn 0.4273 -0.3656 -0.8269
vn -0.0623 -0.5271 -0.8475
vn -0.3023 -0.5726 -0.7621
vn 0.3038 -0.2004 -0.9314
vn -0.0093 -0.3898 -0.9208
vn 0.6242 -0.6998 -0.3473
vn 0.4947 -0.8606 0.1208
vn 0.6428 -0.3824 -0.6638
vn 0.7392 -0.1137 -0.6638
vn 0.1538 -0.2831 -0.9467
vn 0.0021 -0.0433 -0.9991
vn 0.6531 -0.2150 -0.7261
vn 0.3874 0.0863 -0.9179
vn 0.5829 -0.5981 -0.5500
vn 0.7058 -0.4835 -0.5178
vn 0.1137 -0.3518 -0.9292
vn 0.2715 -0.5561 -0.7856
vn 0.5325 -0.7625 -0.3675
vn 0.2093 -0.8557 -0.4732
vn 0.4267 -0.0816 -0.9007
vn 0.2960 -0.1633 -0.9411
vn -0.1852 -0.0233 -0.9824
vn -0.4078 -0.3935 -0.8239
vn -0.1415 -0.2193 -0.9653
vn -0.2244 -0.1589 -0.9614
vn 0.3813 -0.5833 -0.7172
vn 0.4684 -0.7507 -0.4659
vn 0.1125 0.0024 -0.9937
vn 0.0527 -0.0773 -0.9956
vn 0.4025 -0.4095 -0.8187
vn 0.2157 -0.2917 -0.9319
vn -0.5168 0.8560 0.0131
vn 0.5356 0.8444 0.0107
vn -0.7311 -0.6823 -0.0058
vn -0.8547 -0.5085 -0.1042
vn 0.7179 0.6953 0.0352
vn 0.9013 0.3851 0.1984
vn 0.1560 -0.3325 0.9301
vn 0.1775 -0.0130 0.9840
vn 0.2893 0.4530 0.8433
vn 0.4485 0.8810 0.1508
vn -0.9630 -0.2264 0.1461
vn -0.3769 0.0843 0.9224
vn 0.0993 0.3365 -0.9364
vn -0.7582 0.4664 -0.4556
vn 0.4309 0.0939 0.8975
vn 0.5311 0.8053 0.2634
vn -0.3022 0.6017 -0.7393
vn 0.6112 0.6696 -0.4219
vn -0.6406 -0.6999 0.3157
vn -0.8250 -0.3074 0.4741
vn -0.1766 0.7350 -0.6547
vn 0.0292 0.9912 -0.1294
vn 0.4400 -0.5450 0.7137
vn 0.7476 -0.4737 0.4656
vn -0.3740 0.4011 0.8362
vn 0.3290 0.6026 0.7271
vn -0.8063 -0.3133 -0.5018
vn -0.7922 0.2061 -0.5744
vn 0.3724 0.3731 0.8497
vn -0.2479 0.4684 0.8480
vn -0.0099 0.0703 0.9975
vn -0.0120 0.0722 0.9973
vn -0.0124 0.0720 0.9973
vn 0.0173 0.1018 0.9947
vn 0.0962 0.9934 0.0630
vn 0.1445 0.9027 -0.4053
vn -0.4286 0.6884 -0.5852
vn 0.4251 0.7126 -0.5581
vn -0.2504 -0.2165 0.9436
vn -0.6603 -0.5287 0.5333
vn 0.8168 -0.5348 0.2164
vn 0.8882 -0.4371 -0.1419
vn 0.3920 0.8061 -0.4433
vn 0.1114 0.9015 -0.4182
vn -0.5436 -0.7566 -0.3635
vn -0.4799 -0.8747 0.0674
vn -0.4128 0.0994 -0.9054
vn -0.1805 0.4653 -0.8665
vn -0.5755 0.5051 0.6432
vn -0.9567 0.1911 0.2197
vn -0.9956 -0.0565 0.0750
vn -0.9088 -0.0274 -0.4164
vn -0.2532 0.9090 0.3310
vn 0.0314 0.6738 0.7382
vn -0.3344 -0.5877 0.7367
vn 0.3838 -0.6149 0.6889
vn -0.6164 -0.7112 -0.3381
vn -0.5660 -0.4378 -0.6986
vn -0.6742 -0.0775 0.7345
vn -0.8103 0.2295 0.5392
vn 0.0990 0.3230 0.9412
vn -0.0880 0.4942 0.8649
vn -0.3559 -0.5936 0.7218
vn -0.5353 -0.4691 0.7024
vn 0.0732 0.5469 0.8340
vn 0.0027 0.9841 0.1776
vn 0.7882 0.3035 0.5354
vn 0.4805 0.4871 0.7292
vn -0.4829 0.7718 -0.4138
vn -0.2233 0.9745 -0.0201
vn 0.2232 -0.1443 0.9640
vn 0.6849 -0.4721 0.5550
vn -0.4230 -0.3009 0.8547
vn -0.5594 -0.0731 0.8257
vn -0.6720 -0.3160 -0.6697
vn -0.4616 0.0825 -0.8832
vn 0.0776 0.3003 -0.9507
vn 0.0466 0.6848 -0.7273
vn 0.1958 0.4709 -0.8602
vn 0.4926 0.4104 -0.7674
vn -0.0612 -0.6626 0.7465
vn -0.0279 -0.9872 0.1570
vn -0.4263 0.7283 0.5364
vn 0.4471 0.6794 0.5818
vn 0.5978 -0.0175 0.8014
vn 0.5253 -0.3258 0.7861
vn 0.2503 0.4293 -0.8678
vn -0.2689 0.4659 -0.8430
vn 0.1276 -0.2226 0.9665
vn -0.0097 0.0700 0.9975
vn 0.8779 -0.1711 0.4473
vn 0.9924 0.1229 -0.0068
vn 0.9799 0.0726 -0.1856
vn 0.6168 0.5503 -0.5628
vn 0.0969 -0.5732 0.8137
vn 0.0433 -0.4435 0.8952
vn 0.2947 0.9427 0.1566
vn -0.0346 0.8785 0.4766
vn -0.7440 -0.4959 0.4479
vn -0.8343 -0.5510 -0.0176
vn -0.4402 0.8684 -0.2284
vn 0.0751 0.9586 -0.2746
vn 0.0129 -0.1191 0.9928
vn -0.1522 -0.2752 0.9493
vn 0.4292 0.6909 0.5818
vn 0.1502 0.7470 0.6477
vn -0.4753 0.8585 -0.1923
vn -0.6803 0.7237 0.1159
vn -0.6530 -0.5423 -0.5287
vn -0.8363 -0.4936 -0.2386
vn 0.0003 0.1545 0.9880
vn 0.2039 0.4055 0.8911
vn 0.9418 -0.1682 0.2911
vn 0.8933 -0.4492 -0.0173
vn -0.2999 0.3959 -0.8679
vn -0.6286 0.5728 -0.5261
vn 0.3971 -0.4742 0.7858
vn 0.4458 -0.3212 0.8355
vn 0.5501 -0.5766 0.6041
vn 0.6310 -0.7510 0.1948
vn -0.4127 0.7223 0.5550
vn 0.0251 0.8641 0.5027
vt 0.165973 0.954023
s 1
usemtl wire_143224087
f 1/1/1 2/1/1 3/1/1
f 4/1/2 5/1/2 6/1/2
f 7/1/3 8/1/3 9/1/3
f 10/1/4 11/1/4 12/1/4
f 13/1/5 14/1/5 15/1/5
f 16/1/6 17/1/6 18/1/6
f 19/1/7 20/1/7 16/1/7
f 21/1/8 22/1/8 23/1/8
f 24/1/9 25/1/9 26/1/9
f 27/1/10 28/1/10 29/1/10
f 30/1/11 14/1/11 31/1/11
f 32/1/12 33/1/12 17/1/12
f 20/1/13 34/1/13 16/1/13
f 35/1/14 36/1/14 32/1/14
f 32/1/15 36/1/15 33/1/15
f 37/1/16 38/1/16 25/1/16
f 39/1/17 19/1/17 40/1/17
f 41/1/18 42/1/18 43/1/18
f 16/1/19 44/1/19 32/1/19
f 16/1/20 32/1/20 17/1/20
f 15/1/21 45/1/21 13/1/21
f 46/1/22 11/1/22 47/1/22
f 11/1/23 48/1/23 12/1/23
f 49/1/24 40/1/24 50/1/24
f 51/1/25 52/1/25 53/1/25
f 13/1/26 45/1/26 46/1/26
f 54/1/27 15/1/27 55/1/27
f 30/1/28 31/1/28 35/1/28
f 48/1/29 49/1/29 12/1/29
f 4/1/30 56/1/30 57/1/30
f 55/1/31 15/1/31 30/1/31
f 15/1/32 14/1/32 30/1/32
f 57/1/33 56/1/33 34/1/33
f 55/1/34 30/1/34 35/1/34
f 11/1/35 5/1/35 48/1/35
f 46/1/36 45/1/36 11/1/36
f 49/1/37 4/1/37 57/1/37
f 40/1/38 49/1/38 39/1/38
f 6/1/39 35/1/39 34/1/39
f 35/1/40 32/1/40 44/1/40
f 39/1/41 49/1/41 57/1/41
f 39/1/42 20/1/42 19/1/42
f 48/1/43 5/1/43 4/1/43
f 48/1/44 4/1/44 49/1/44
f 35/1/45 6/1/45 55/1/45
f 6/1/46 54/1/46 55/1/46
f 11/1/47 45/1/47 5/1/47
f 45/1/48 15/1/48 54/1/48
f 39/1/49 57/1/49 20/1/49
f 20/1/50 57/1/50 34/1/50
f 36/1/51 58/1/51 33/1/51
f 31/1/52 14/1/52 58/1/52
f 35/1/53 31/1/53 36/1/53
f 31/1/54 58/1/54 36/1/54
f 5/1/55 54/1/55 6/1/55
f 54/1/56 5/1/56 45/1/56
f 34/1/57 44/1/57 16/1/57
f 34/1/58 35/1/58 44/1/58
f 4/1/59 6/1/59 56/1/59
f 6/1/60 34/1/60 56/1/60
f 42/1/61 59/1/61 43/1/61
f 60/1/62 43/1/62 59/1/62
f 61/1/63 62/1/63 52/1/63
f 63/1/64 62/1/64 64/1/64
f 65/1/65 66/1/65 67/1/65
f 67/1/66 66/1/66 23/1/66
f 68/1/67 69/1/67 9/1/67
f 70/1/68 71/1/68 72/1/68
f 2/1/69 73/1/69 3/1/69
f 43/1/70 60/1/70 74/1/70
f 63/1/71 64/1/71 75/1/71
f 76/1/72 27/1/72 29/1/72
f 17/1/73 33/1/73 77/1/73
f 37/1/74 78/1/74 38/1/74
f 72/1/75 71/1/75 21/1/75
f 79/1/76 66/1/76 65/1/76
f 80/1/77 18/1/77 81/1/77
f 82/1/78 65/1/78 67/1/78
f 52/1/79 51/1/79 61/1/79
f 64/1/80 83/1/80 75/1/80
f 84/1/81 77/1/81 85/1/81
f 60/1/82 84/1/82 86/1/82
f 68/1/83 47/1/83 87/1/83
f 22/1/84 10/1/84 88/1/84
f 29/1/85 26/1/85 76/1/85
f 2/1/86 74/1/86 73/1/86
f 89/1/87 63/1/87 90/1/87
f 38/1/88 78/1/88 90/1/88
f 21/1/89 91/1/89 72/1/89
f 1/1/90 3/1/90 92/1/90
f 28/1/91 3/1/92 29/1/93
f 3/1/94 70/1/94 72/1/94
f 42/1/95 79/1/95 65/1/95
f 65/1/96 82/1/96 80/1/96
f 81/1/97 59/1/97 80/1/97
f 77/1/98 59/1/98 81/1/98
f 7/1/99 28/1/99 27/1/99
f 61/1/100 51/1/100 83/1/100
f 12/1/101 88/1/101 10/1/101
f 12/1/102 49/1/102 50/1/102
f 59/1/103 77/1/103 60/1/103
f 77/1/104 84/1/104 60/1/104
f 52/1/105 14/1/105 13/1/105
f 52/1/106 13/1/106 53/1/106
f 33/1/107 58/1/107 78/1/107
f 33/1/108 85/1/108 77/1/108
f 76/1/109 26/1/109 25/1/109
f 38/1/110 75/1/110 25/1/110
f 63/1/111 75/1/111 38/1/111
f 38/1/112 90/1/112 63/1/112
f 86/1/113 24/1/113 26/1/113
f 74/1/114 26/1/114 73/1/114
f 53/1/115 8/1/115 7/1/115
f 46/1/116 47/1/116 68/1/116
f 52/1/117 62/1/117 14/1/117
f 58/1/118 14/1/118 89/1/118
f 76/1/119 75/1/119 83/1/119
f 25/1/120 75/1/120 76/1/120
f 29/1/121 3/1/121 73/1/121
f 73/1/122 26/1/122 29/1/122
f 53/1/123 7/1/123 51/1/123
f 83/1/124 51/1/124 7/1/124
f 92/1/125 91/1/125 1/1/125
f 42/1/126 41/1/126 79/1/126
f 66/1/127 21/1/127 23/1/127
f 66/1/128 91/1/128 21/1/128
f 37/1/129 84/1/129 85/1/129
f 84/1/130 24/1/130 86/1/130
f 69/1/131 71/1/131 70/1/131
f 87/1/132 10/1/132 22/1/132
f 83/1/133 7/1/133 27/1/133
f 76/1/134 83/1/134 27/1/134
f 58/1/135 89/1/135 90/1/135
f 58/1/136 90/1/136 78/1/136
f 18/1/137 19/1/137 16/1/137
f 18/1/138 80/1/138 82/1/138
f 19/1/139 18/1/139 82/1/139
f 82/1/140 40/1/140 19/1/140
f 53/1/141 46/1/141 8/1/141
f 53/1/142 13/1/142 46/1/142
f 43/1/143 2/1/143 41/1/143
f 43/1/144 74/1/144 2/1/144
f 71/1/145 22/1/145 21/1/145
f 87/1/146 22/1/146 71/1/146
f 17/1/147 77/1/147 81/1/147
f 17/1/148 81/1/148 18/1/148
f 9/1/149 69/1/149 70/1/149
f 28/1/91 70/1/150 3/1/92
f 88/1/151 23/1/151 22/1/151
f 50/1/152 67/1/152 23/1/152
f 40/1/153 67/1/153 50/1/153
f 82/1/154 67/1/154 40/1/154
f 46/1/155 68/1/155 8/1/155
f 9/1/156 8/1/156 68/1/156
f 74/1/157 60/1/157 86/1/157
f 86/1/158 26/1/158 74/1/158
f 64/1/159 61/1/159 83/1/159
f 62/1/160 61/1/160 64/1/160
f 42/1/161 80/1/161 59/1/161
f 65/1/162 80/1/162 42/1/162
f 9/1/163 70/1/163 28/1/163
f 7/1/164 9/1/164 28/1/164
f 91/1/165 66/1/165 79/1/165
f 79/1/166 1/1/166 91/1/166
f 24/1/167 84/1/167 37/1/167
f 24/1/168 37/1/168 25/1/168
f 89/1/169 14/1/169 62/1/169
f 89/1/170 62/1/170 63/1/170
f 72/1/171 92/1/171 3/1/171
f 72/1/172 91/1/172 92/1/172
f 88/1/173 50/1/173 23/1/173
f 12/1/174 50/1/174 88/1/174
f 33/1/175 78/1/175 85/1/175
f 37/1/176 85/1/176 78/1/176
f 68/1/177 87/1/177 69/1/177
f 69/1/178 87/1/178 71/1/178
f 47/1/179 10/1/179 87/1/179
f 47/1/180 11/1/180 10/1/180
f 41/1/181 2/1/181 1/1/181
f 79/1/182 41/1/182 1/1/182
